# xmcd
#
# Track frame offsets:
#	150
#	4197
#	25132
#	40646
#	49223
#	53836
#	73549
#	78589
#	96207
#	104390
#	126920
#	145459
#	159175
#	198431
#
# Disc length: 2709 seconds
#
# Revision: 1
# Processed by: cddbd v1.5.2PL0 Copyright (c) Steve Scherf et al.
# Submitted via: EasyCDDAExtractor 16.0.9.1
#
DISCID=b90a930e
DTITLE=балбайаягс стекиос - лиа леяа тг мувта Athens Blues
DYEAR=2000
DGENRE=Blues
TTITLE0=ояцамийо - лиа леяа тг мувта
TTITLE1=сйиадаяесг лаяима and вояыдиа - то бажтистгяи
TTITLE2=ояцамийо - дыяо циыяцоу
TTITLE3=вояыдиа - е малоум йи
TTITLE4=ояцамийо - о хылас паеи циа упмо
TTITLE5=ояцамийо - циати дем ле сйотымеис
TTITLE6=коупг гяы - то гвовяыла
TTITLE7=ояцамийо - паяаккгкг дяасг
TTITLE8=ояцамийо - еяволос аятелг
TTITLE9=сйиадаяесг лаяима - о упмобатгс
TTITLE10=балбайаягс стекиос and аццекоу ебекима - стгм ажяодитг х амебы
TTITLE11=аццекоу ебекима - г лпакамта тгс пгмекопгс
TTITLE12=ояцамийо - то BLUES тоу стекиоу
TTITLE13=ояцамийо - то танили тгс ажяодитгс
EXTD=C IIOOEEC A?I OCI OAEIEA OIO AEUNAIO ?AIIOOI?IOEIO
EXTT0=
EXTT1=
EXTT2=
EXTT3=
EXTT4=
EXTT5=
EXTT6=
EXTT7=
EXTT8=
EXTT9=
EXTT10=
EXTT11=
EXTT12=
EXTT13=
PLAYORDER=
